<?xml version="1.0" encoding="UTF-8" standalone="no"?>
<svg
   xmlns:dc="http://purl.org/dc/elements/1.1/"
   xmlns:cc="http://creativecommons.org/ns#"
   xmlns:rdf="http://www.w3.org/1999/02/22-rdf-syntax-ns#"
   xmlns:svg="http://www.w3.org/2000/svg"
   xmlns="http://www.w3.org/2000/svg"
   id="svg8"
   version="1.1"
   viewBox="0 0 1920 1920"
   height="1796"
   width="1796">
  <defs
     id="defs2" />
  <metadata
     id="metadata5">
    <rdf:RDF>
      <cc:Work
         rdf:about="">
        <dc:format>image/svg+xml</dc:format>
        <dc:type
           rdf:resource="http://purl.org/dc/dcmitype/StillImage" />
        <dc:title></dc:title>
      </cc:Work>
    </rdf:RDF>
  </metadata>
  <g
     transform="translate(26.921634,-154.08762)"
     style="display:inline;opacity:1;mix-blend-mode:normal"
     id="layer2">
    <path
       id="path960"
       d="m 282.60124,767.09665 c 0,0 56.00058,-23.23548 84.25004,-34.22658 37.52459,-14.5998 76.34526,-25.93344 113.21099,-42.12502 45.99759,-20.20233 91.10293,-42.75855 134.27351,-68.45316 14.64267,-8.71514 27.0566,-21.00455 42.12502,-28.96096 25.79753,-13.62158 42.5663,-4.83321 76.27245,-29.45585 29.59443,-21.61899 31.01313,-71.28279 36.93854,-107.45047 4.259,-25.99619 4.17042,-56.49799 -1.64301,-82.19128 -5.89034,-26.03324 -28.84634,-41.45073 -32.58357,-67.8791 -1.25313,-8.86168 -3.07108,-23.07254 5.26563,-26.32814 11.11896,-4.34211 28.75873,14.01637 37.5126,22.13147 16.89367,15.66093 26.76878,29.64378 41.55097,47.31148 24.80447,29.64636 42.74176,64.85785 68.374,93.79151 16.87655,19.05024 23.97828,34.16332 47.3115,46.73744 16.67741,8.98735 47.68868,9.21981 60.63387,-4.61242 23.52602,-25.13815 33.59372,-39.91574 44.75782,-63.18754 11.0539,-23.04198 10.4903,-44.94982 17.8557,-68.374 3.7897,-12.05239 18.8998,12.76975 18.8998,12.76975 7.1639,20.43659 7.7027,40.68234 10.6352,52.97144 7.176,30.07175 6.0565,61.55793 10.5313,92.14848 3.6129,24.69879 -4.6019,56.1844 13.164,73.71879 40.8241,40.29195 97.544,47.25989 144.8048,73.71879 27.8427,15.5877 57.9415,28.6307 81.6172,50.02346 17.1911,15.53345 34.9872,31.15133 42.1251,55.28909 6.6266,22.40878 22.2733,42.12404 39.4922,57.92191 23.7426,21.78312 60.7718,25.32287 84.25,47.39065 12.9483,12.17043 18.5706,30.34194 28.961,44.75783 13.1429,18.23481 33.1999,32.02653 42.125,52.65628 7.3921,17.08631 9.0249,36.7064 7.8984,55.2891 -1.4299,23.5869 -5.3541,48.7703 -18.4297,68.4532 -11.0738,16.6694 -31.7665,24.3539 -47.3906,36.8594 -15.0891,12.0773 -34.4355,20.5195 -44.7579,36.8594 -11.5954,18.3549 -7.4885,43.1294 -15.7968,63.1875 -3.9166,9.4555 -5.7557,24.348 -15.7969,26.3282 -43.7111,8.6203 -68.3332,11.381 -102.6798,15.7968 -25.3775,3.2627 -50.7992,6.5803 -76.3516,7.8985 -14.023,0.7234 -28.7716,-4.3423 -42.125,0 -11.3516,3.6914 -21.5749,11.6853 -28.9609,21.0625 -17.0429,21.6374 -18.2369,52.2636 -31.5938,76.3516 -21.9662,39.6141 -48.8073,76.7976 -78.9844,110.5782 -7.8659,8.8052 -14.5741,24.8117 -26.3282,23.6953 -24.1553,-2.2943 -31.8359,-11.6969 -47.3907,-18.4297 -20.53355,-8.8879 -42.51483,-15.7251 -60.55468,-28.9609 -14.51837,-10.6521 -28.47306,-37.3383 -46.48001,-37.3544 -32.24707,-0.029 -75.36654,-0.2089 -94.86045,18.5881 -29.60472,28.5463 -38.70486,47.764 -64.01902,79.321 -5.49141,6.8457 -8.37228,16.3834 -15.79688,21.0625 -7.57163,4.7718 -19.84011,-0.8992 -26.32814,5.2656 -35.47343,33.7063 -54.69727,76.6133 -84.25004,113.211 -5.86097,7.2581 -10.75849,15.7536 -18.4297,21.0625 -6.16576,4.267 -16.56809,1.8965 -21.06251,7.8985 -23.88322,31.8943 -39.75307,58.8208 -55.28909,89.5156 -2.41072,4.7629 0.92242,11.8148 -2.63282,15.7969 -8.51012,9.532 -25.05395,5.6413 -36.85939,10.5313 -8.3477,3.4577 -18.77309,5.587 -23.69532,13.164 -19.45365,29.9459 -30.54939,54.654 -50.02347,78.9845 -10.85779,13.5655 -26.55448,34.6542 -42.20417,42.2041 -26.04205,12.5635 -80.83872,4.4871 -80.83872,4.4871 z"
       style="fill:none;stroke:#ffffff;stroke-width:136.063;stroke-linecap:butt;stroke-linejoin:miter;stroke-miterlimit:4;stroke-dasharray:none;stroke-opacity:1" />
  </g>
  <g
     style="display:none"
     id="layer3">
    <path
       id="path1230"
       d="M 315.16626,116.53445 1604.8337,1803.4655 v 0"
       style="display:inline;opacity:1;fill:none;stroke:#ffffff;stroke-width:136.063;stroke-linecap:butt;stroke-linejoin:miter;stroke-miterlimit:4;stroke-dasharray:none;stroke-opacity:1" />
  </g>
</svg>
